<?xml version="1.0" encoding="UTF-8"?>
<svg width="800px" height="800px" viewBox="0 0 800 800" version="1.1" xmlns="http://www.w3.org/2000/svg" xmlns:xlink="http://www.w3.org/1999/xlink">
    <!-- Generator: Sketch 49.2 (51160) - http://www.bohemiancoding.com/sketch -->
    <title>Dark</title>
    <desc>Created with Sketch.</desc>
    <defs></defs>
    <g id="Dark" stroke="none" stroke-width="1" fill="none" fill-rule="evenodd">
        <g id="Logo" transform="translate(200.000000, 147.000000)" fill="#00E3A0" fill-rule="nonzero">
            <path d="M394.30942,112.838891 C397.054554,112.838891 399.281662,115.165611 399.281662,118.038289 L399.281662,361.411942 C399.281662,364.284619 397.054554,366.613473 394.307383,366.613473 L268.428937,366.613473 C265.683806,366.613473 263.456698,368.940193 263.456698,371.81287 L263.456698,500.296448 C263.456698,503.169128 261.22959,505.495848 258.484459,505.495848 L110.365537,505.495848 C107.618365,505.495848 105.391258,503.169128 105.391258,500.296448 L105.391258,445.798733 C105.391258,442.139107 108.228168,439.172593 111.727907,439.172593 L198.232244,439.172593 C200.979418,439.172593 203.204486,436.843739 203.204486,433.973192 L203.204486,305.489615 C203.204486,302.616937 205.431591,300.288084 208.178766,300.288084 L334.057208,300.288084 C336.80438,300.288084 339.029447,297.961364 339.029447,295.088686 L339.029447,119.465032 C339.029447,115.805406 341.86636,112.838891 345.366099,112.838891 L394.30942,112.838891 Z M65.8825457,66.3253874 C63.1374122,66.3253874 60.9103053,68.6521075 60.9103053,71.5247859 L60.9103053,385.678926 C60.9103053,389.534759 57.9224745,392.659088 54.2351033,392.659088 L5.63237195,392.659088 C2.88519883,392.659088 0.660131588,390.330237 0.660131588,387.45969 L0.660131588,5.19939854 C0.660131588,2.32885282 2.88519883,0 5.63237195,0 L289.576256,0 C292.323428,0 294.548495,2.32885282 294.548495,5.20153118 L294.548495,59.3452269 C294.548495,63.2010564 291.560667,66.3253874 287.873293,66.3253874 L65.8825457,66.3253874 Z"></path>
        </g>
    </g>
</svg>