<svg width="892" height="1132" viewBox="0 0 892 1132" fill="none" xmlns="http://www.w3.org/2000/svg">
<path d="M879.948 252.475C886.084 252.475 891.063 257.681 891.063 264.108V808.652C891.063 815.08 886.084 820.291 879.943 820.291H598.56C592.423 820.291 587.445 825.497 587.445 831.924V1119.4C587.445 1125.83 582.467 1131.04 576.33 1131.04H245.231C239.09 1131.04 234.112 1125.83 234.112 1119.4V997.466C234.112 989.278 240.453 982.64 248.276 982.64H441.645C447.786 982.64 452.76 977.429 452.76 971.007V683.527C452.76 677.1 457.738 671.889 463.879 671.889H745.262C751.403 671.889 756.377 666.683 756.377 660.255V267.301C756.377 259.112 762.719 252.475 770.542 252.475H879.948ZM145.796 148.402C139.659 148.402 134.681 153.608 134.681 160.035V862.949C134.681 871.577 128.002 878.567 119.759 878.567H11.1147C4.97383 878.567 0 873.356 0 866.934V11.6336C0 5.21076 4.97383 0 11.1147 0H645.832C651.972 0 656.946 5.21076 656.946 11.6383V132.784C656.946 141.411 650.267 148.402 642.025 148.402H145.796Z" fill="#00E3A0"/>
</svg>
