<svg width="800" height="800" xmlns="http://www.w3.org/2000/svg"><path d="M594.31 259.839c2.745 0 4.972 2.327 4.972 5.2v243.373c0 2.873-2.227 5.201-4.975 5.201H468.43c-2.745 0-4.972 2.327-4.972 5.2v128.483c0 2.873-2.227 5.2-4.973 5.2H310.366c-2.748 0-4.975-2.327-4.975-5.2V592.8c0-3.66 2.837-6.626 6.337-6.626h86.504c2.747 0 4.972-2.33 4.972-5.2V452.49c0-2.873 2.228-5.202 4.975-5.202h125.878c2.747 0 4.972-2.327 4.972-5.2V266.466c0-3.66 2.837-6.626 6.337-6.626h48.943zm-328.427-46.514c-2.746 0-4.973 2.327-4.973 5.2v314.154c0 3.856-2.988 6.98-6.675 6.98h-48.603c-2.747 0-4.972-2.329-4.972-5.2V152.2c0-2.87 2.225-5.199 4.972-5.199h283.944c2.747 0 4.972 2.329 4.972 5.202v54.143c0 3.856-2.987 6.98-6.675 6.98h-221.99z" fill="#00E3A0" fill-rule="nonzero"/></svg>